<?xml version="1.0" encoding="UTF-8" standalone="no"?>
<!DOCTYPE svg PUBLIC "-//W3C//DTD SVG 1.1//EN" "http://www.w3.org/Graphics/SVG/1.1/DTD/svg11.dtd">
<svg width="100%" height="100%" viewBox="0 0 239 239" version="1.1" xmlns="http://www.w3.org/2000/svg" xmlns:xlink="http://www.w3.org/1999/xlink" xml:space="preserve" xmlns:serif="http://www.serif.com/" style="fill-rule:evenodd;clip-rule:evenodd;stroke-linejoin:round;stroke-miterlimit:2;">
    <g transform="matrix(1,0,0,1,-2952.353569,-942.759401)">
        <g transform="matrix(0.071646,0,0,0.071646,3071.76395,1062.169783)">
            <g transform="matrix(1,0,0,1,-1666.666667,-1666.666667)">
                <g transform="matrix(6.510417,0,0,6.510417,0,0)">
                    <path d="M247.355,106.9C222.705,82.241 205.833,39.18 197.46,0C189.074,39.188 172.22,82.258 147.561,106.917C122.911,131.559 79.837,148.431 40.665,156.821C79.853,165.194 122.919,182.056 147.569,206.716C172.219,231.366 189.091,274.436 197.477,313.616C205.85,274.428 222.717,231.358 247.363,206.699C272.013,182.049 315.087,165.185 354.259,156.795C315.08,148.422 272.014,131.551 247.355,106.9Z" style="fill:rgb(108,71,255);fill-rule:nonzero;"/>
                    <path d="M407.471,304.339C392.757,289.618 382.661,263.879 377.659,240.475C372.648,263.879 362.586,289.617 347.856,304.347C333.126,319.061 307.392,329.148 283.992,334.159C307.4,339.169 333.126,349.24 347.856,363.97C362.586,378.692 372.666,404.43 377.676,427.834C382.677,404.421 392.757,378.692 407.478,363.962C422.2,349.24 447.938,339.16 471.334,334.142C447.939,329.14 422.201,319.061 407.471,304.339Z" style="fill:rgb(108,71,255);fill-rule:nonzero;"/>
                    <path d="M146.352,354.702C142.145,374.35 133.697,395.965 121.333,408.328C108.971,420.682 87.365,429.148 67.72,433.355C87.365,437.571 108.971,446.011 121.333,458.382C133.697,470.744 142.162,492.342 146.369,512C150.572,492.342 159.024,470.745 171.392,458.374C183.746,446.012 205.356,437.554 224.997,433.339C205.357,429.139 183.746,420.683 171.384,408.32C159.024,395.966 150.555,374.351 146.352,354.702Z" style="fill:rgb(108,71,255);fill-rule:nonzero;"/>
                </g>
            </g>
        </g>
    </g>
</svg>
